<svg width="354" height="364" viewBox="0 0 354 364" fill="none" xmlns="http://www.w3.org/2000/svg">
<rect width="337" height="325" rx="97" fill="#F5E9FF"/>
<g filter="url(#filter0_iif_102_8)">
<path d="M195 93H143.25C132.9 93 126 100.707 126 109.515V159.06V257.05C126 271.363 142.1 279.07 154.75 270.262L184.65 248.242C190.4 243.838 199.6 243.838 205.35 248.242L235.25 270.262C246.75 279.07 264 270.262 264 257.05V159.06V109.515C264 99.606 255.95 93 246.75 93H195Z" fill="url(#paint0_linear_102_8)"/>
</g>
<g filter="url(#filter1_ii_102_8)">
<path d="M170 75H118.25C107.9 75 101 82.6645 101 91.4238V140.695V238.144C101 252.378 117.1 260.042 129.75 251.282L159.65 229.384C165.4 225.004 174.6 225.004 180.35 229.384L210.25 251.282C221.75 260.042 239 251.283 239 238.144V140.695V91.4238C239 81.5695 230.95 75 221.75 75H170Z" fill="url(#paint1_linear_102_8)"/>
</g>
<g filter="url(#filter2_f_102_8)">
<path d="M204.236 238.53L204.206 238.506L204.176 238.484L177.988 219.04C171.516 214.067 161.484 214.067 155.012 219.04L128.869 238.451C120.057 244.597 110 238.961 110 230.017V143.396V99.599C110 93.9799 114.301 89 121.125 89H166.5H211.875C218.047 89 223 93.3509 223 99.599V143.396V230.017C223 234.018 220.393 237.645 216.439 239.553C212.53 241.439 207.888 241.349 204.236 238.53Z" stroke="url(#paint2_linear_102_8)" stroke-opacity="0.6" stroke-width="8"/>
</g>
<g filter="url(#filter3_f_102_8)">
<path d="M180 170.144C173.053 169.033 165.947 169.033 159 170.144V143.396V135H169.5H180V143.396V170.144Z" stroke="url(#paint3_linear_102_8)" stroke-opacity="0.8" stroke-width="100"/>
</g>
<defs>
<filter id="filter0_iif_102_8" x="36" y="3" width="318" height="361" filterUnits="userSpaceOnUse" color-interpolation-filters="sRGB">
<feFlood flood-opacity="0" result="BackgroundImageFix"/>
<feBlend mode="normal" in="SourceGraphic" in2="BackgroundImageFix" result="shape"/>
<feColorMatrix in="SourceAlpha" type="matrix" values="0 0 0 0 0 0 0 0 0 0 0 0 0 0 0 0 0 0 127 0" result="hardAlpha"/>
<feOffset dx="12" dy="12"/>
<feGaussianBlur stdDeviation="10"/>
<feComposite in2="hardAlpha" operator="arithmetic" k2="-1" k3="1"/>
<feColorMatrix type="matrix" values="0 0 0 0 1 0 0 0 0 1 0 0 0 0 1 0 0 0 0.45 0"/>
<feBlend mode="normal" in2="shape" result="effect1_innerShadow_102_8"/>
<feColorMatrix in="SourceAlpha" type="matrix" values="0 0 0 0 0 0 0 0 0 0 0 0 0 0 0 0 0 0 127 0" result="hardAlpha"/>
<feOffset dx="-17" dy="-17"/>
<feGaussianBlur stdDeviation="17"/>
<feComposite in2="hardAlpha" operator="arithmetic" k2="-1" k3="1"/>
<feColorMatrix type="matrix" values="0 0 0 0 0 0 0 0 0 0 0 0 0 0 0 0 0 0 0.2 0"/>
<feBlend mode="normal" in2="effect1_innerShadow_102_8" result="effect2_innerShadow_102_8"/>
<feGaussianBlur stdDeviation="45" result="effect3_foregroundBlur_102_8"/>
</filter>
<filter id="filter1_ii_102_8" x="84" y="58" width="167" height="209" filterUnits="userSpaceOnUse" color-interpolation-filters="sRGB">
<feFlood flood-opacity="0" result="BackgroundImageFix"/>
<feBlend mode="normal" in="SourceGraphic" in2="BackgroundImageFix" result="shape"/>
<feColorMatrix in="SourceAlpha" type="matrix" values="0 0 0 0 0 0 0 0 0 0 0 0 0 0 0 0 0 0 127 0" result="hardAlpha"/>
<feOffset dx="12" dy="12"/>
<feGaussianBlur stdDeviation="10"/>
<feComposite in2="hardAlpha" operator="arithmetic" k2="-1" k3="1"/>
<feColorMatrix type="matrix" values="0 0 0 0 1 0 0 0 0 1 0 0 0 0 1 0 0 0 0.45 0"/>
<feBlend mode="normal" in2="shape" result="effect1_innerShadow_102_8"/>
<feColorMatrix in="SourceAlpha" type="matrix" values="0 0 0 0 0 0 0 0 0 0 0 0 0 0 0 0 0 0 127 0" result="hardAlpha"/>
<feOffset dx="-17" dy="-17"/>
<feGaussianBlur stdDeviation="17"/>
<feComposite in2="hardAlpha" operator="arithmetic" k2="-1" k3="1"/>
<feColorMatrix type="matrix" values="0 0 0 0 0 0 0 0 0 0 0 0 0 0 0 0 0 0 0.2 0"/>
<feBlend mode="normal" in2="effect1_innerShadow_102_8" result="effect2_innerShadow_102_8"/>
</filter>
<filter id="filter2_f_102_8" x="96" y="75" width="141" height="180" filterUnits="userSpaceOnUse" color-interpolation-filters="sRGB">
<feFlood flood-opacity="0" result="BackgroundImageFix"/>
<feBlend mode="normal" in="SourceGraphic" in2="BackgroundImageFix" result="shape"/>
<feGaussianBlur stdDeviation="5" result="effect1_foregroundBlur_102_8"/>
</filter>
<filter id="filter3_f_102_8" x="104" y="80" width="131" height="170" filterUnits="userSpaceOnUse" color-interpolation-filters="sRGB">
<feFlood flood-opacity="0" result="BackgroundImageFix"/>
<feBlend mode="normal" in="SourceGraphic" in2="BackgroundImageFix" result="shape"/>
<feGaussianBlur stdDeviation="2.5" result="effect1_foregroundBlur_102_8"/>
</filter>
<linearGradient id="paint0_linear_102_8" x1="264.296" y1="77.7798" x2="133.861" y2="279.81" gradientUnits="userSpaceOnUse">
<stop stop-color="#1A1A1A"/>
<stop offset="0.0001" stop-color="#CF95FB"/>
<stop offset="0.989583" stop-color="#FFDA58"/>
</linearGradient>
<linearGradient id="paint1_linear_102_8" x1="239.296" y1="59.8639" x2="109.879" y2="261.431" gradientUnits="userSpaceOnUse">
<stop stop-color="#1A1A1A"/>
<stop offset="0.0001" stop-color="#CF95FB"/>
<stop offset="0.989583" stop-color="#FFDA58"/>
</linearGradient>
<linearGradient id="paint2_linear_102_8" x1="237.083" y1="75.922" x2="176.838" y2="168.061" gradientUnits="userSpaceOnUse">
<stop stop-color="white"/>
<stop offset="1" stop-color="white" stop-opacity="0"/>
</linearGradient>
<linearGradient id="paint3_linear_102_8" x1="240.083" y1="75.922" x2="189.455" y2="159.094" gradientUnits="userSpaceOnUse">
<stop stop-color="white"/>
<stop offset="1" stop-color="white" stop-opacity="0"/>
</linearGradient>
</defs>
</svg>
